Coordinates
version=1
nRows=8
nColumns=46
inDegrees=yes

Units are S.I. units (second, meters, Newtons, ...)
Angles are in degrees.

endheader
time	pelvis_tilt	pelvis_list	pelvis_rotation	pelvis_tx	pelvis_ty	pelvis_tz	bb_angle	bb_tx	bb_ty	bb_tz	hip_flexion_r	hip_adduction_r	hip_rotation_r	knee_angle_r	knee_angle_r_beta	ankle_angle_r	subtalar_angle_r	mtp_angle_r	crank_angle_r	hip_flexion_l	hip_adduction_l	hip_rotation_l	knee_angle_l	knee_angle_l_beta	ankle_angle_l	subtalar_angle_l	mtp_angle_l	crank_angle_l	lumbar_extension	lumbar_bending	lumbar_rotation	arm_flex_r	arm_add_r	arm_rot_r	elbow_flex_r	pro_sup_r	wrist_flex_r	wrist_dev_r	arm_flex_l	arm_add_l	arm_rot_l	elbow_flex_l	pro_sup_l	wrist_flex_l	wrist_dev_l
      5.00500000	    -14.35603541	     -2.50878509	      4.48752805	      0.17664010	      1.08498485	     -0.24502297	      0.00000000	      0.50000000	      0.00000000	      0.25000000	     85.13792088	     -3.59428177	      2.05739810	    121.14229940	      2.11433199	     -6.49595246	    -18.86657648	      0.00000000	      0.00000000	     46.23745784	     -3.18369837	      3.95281204	     41.84064108	      0.73025695	    -10.04901101	    -10.77879356	      0.00000000	      0.00000000	    -68.50673538	      2.75031280	      1.04920485	     73.35809816	    -18.53058896	     12.22767565	     79.46882760	     49.57593936	      0.00000000	      0.00000000	     82.07424380	    -22.11327386	     37.08336449	     75.75488308	     47.63216948	      0.00000000	      0.00000000
      5.01000000	    -14.38929240	     -2.36194952	      4.19671072	      0.17673426	      1.08529949	     -0.24552996	      0.00000000	      0.50000000	      0.00000000	      0.25000000	     86.27918527	     -3.63327549	      2.32578141	    121.65227518	      2.12323274	     -5.09553183	    -18.19058779	      0.00000000	      0.00000000	     45.28366538	     -3.55754639	      2.96340007	     41.29063591	      0.72065755	    -10.14575293	     -9.96100444	      0.00000000	      0.00000000	    -68.62959203	      2.94463937	      0.42597543	     74.20644028	    -17.92535377	     13.98488307	     78.75330434	     49.77191819	      0.00000000	      0.00000000	     81.04092342	    -23.42920057	     35.42676584	     77.60167725	     47.90510574	      0.00000000	      0.00000000
      5.01500000	    -14.47747794	     -2.34426740	      3.94752222	      0.17656419	      1.08570085	     -0.24600068	      0.00000000	      0.50000000	      0.00000000	      0.25000000	     87.41848130	     -3.62728006	      2.36707503	    121.92587358	      2.12800794	     -4.09371077	    -18.09069740	      0.00000000	      0.00000000	     44.51707970	     -3.95819051	      2.20557299	     40.89374645	      0.71373052	    -10.43485731	     -9.23722465	      0.00000000	      0.00000000	    -68.66841955	      3.04171920	      0.52894315	     74.47637080	    -17.75301125	     14.22470298	     78.83558757	     49.83665608	      0.00000000	      0.00000000	     80.93088506	    -23.69120659	     35.25781714	     77.55955430	     47.90654133	      0.00000000	      0.00000000
      5.02000000	    -14.61026681	     -2.35589232	      3.74868289	      0.17636106	      1.08622399	     -0.24656272	      0.00000000	      0.50000000	      0.00000000	      0.25000000	     88.50783974	     -3.65632943	      2.37901151	    121.99617164	      2.12923487	     -3.31771596	    -18.23541357	      0.00000000	      0.00000000	     43.88925328	     -4.28888343	      1.59834079	     40.64701043	      0.70942416	    -10.78237355	     -8.83787198	      0.00000000	      0.00000000	    -68.68020067	      3.26432710	      0.69953011	     74.82194067	    -17.64875808	     14.37161762	     78.94193695	     49.87394781	      0.00000000	      0.00000000	     80.84928784	    -23.86888456	     35.15567132	     77.51353177	     47.89860290	      0.00000000	      0.00000000
      5.02500000	    -14.53279390	     -2.31855292	      3.52503885	      0.17644877	      1.08706695	     -0.24711262	      0.00000000	      0.50000000	      0.00000000	      0.25000000	     89.31858980	     -3.70478687	      2.44693959	    121.94979759	      2.12842549	     -2.48685501	    -17.81226541	      0.00000000	      0.00000000	     43.13486972	     -4.65729296	      0.81668910	     40.65927505	      0.70963822	    -10.82970315	     -8.13499049	      0.00000000	      0.00000000	    -68.95444859	      3.45769102	      0.61472908	     75.38043952	    -17.45283780	     15.28283524	     78.76991331	     49.98799813	      0.00000000	      0.00000000	     80.54697171	    -24.41344435	     34.49479918	     77.97706014	     47.96617248	      0.00000000	      0.00000000
      5.03000000	    -14.62938508	     -2.34027253	      3.32028218	      0.17607526	      1.08778495	     -0.24778064	      0.00000000	      0.50000000	      0.00000000	      0.25000000	     90.14749270	     -3.71017678	      2.46618720	    121.62074824	      2.12268250	     -1.80545506	    -17.87960342	      0.00000000	      0.00000000	     42.72708355	     -4.95083112	      0.31781031	     40.86012929	      0.71314379	    -11.19740476	     -7.96533277	      0.00000000	      0.00000000	    -69.04844200	      3.63623639	      0.79894644	     75.78872983	    -17.34174652	     15.40458280	     78.83582962	     50.01484078	      0.00000000	      0.00000000	     80.53217779	    -24.61560048	     34.36516700	     77.97783751	     47.96294062	      0.00000000	      0.00000000
      5.03500000	    -14.64138328	     -2.30741263	      3.21879105	      0.17582227	      1.08876634	     -0.24867792	      0.00000000	      0.50000000	      0.00000000	      0.25000000	     90.77291549	     -3.87944929	      2.53853246	    121.11401078	      2.11383826	     -1.49183726	    -17.91483692	      0.00000000	      0.00000000	     42.25792568	     -5.03684980	      0.10125883	     41.14459460	      0.71810865	    -11.30514976	     -7.92013978	      0.00000000	      0.00000000	    -69.21623279	      3.81131065	      0.90728280	     75.86185368	    -17.29705794	     15.45251333	     78.83378965	     50.01997319	      0.00000000	      0.00000000	     80.54498038	    -24.67542448	     34.32171813	     77.97456660	     47.95990097	      0.00000000	      0.00000000
      5.04000000	    -14.62241421	     -2.55710274	      2.78591738	      0.17564221	      1.08967445	     -0.24875828	      0.00000000	      0.50000000	      0.00000000	      0.25000000	     91.17629376	     -3.49223752	      2.36048834	    120.53074721	      2.10365839	      0.06621527	    -17.01126977	      0.00000000	      0.00000000	     42.06087619	     -5.79908824	     -0.60913561	     41.96429940	      0.73241519	    -11.48362433	     -7.55816518	      0.00000000	      0.00000000	    -69.52687248	      4.09047239	      0.82023065	     77.36591417	    -16.72969867	     17.15989709	     77.87567399	     50.10289444	      0.00000000	      0.00000000	     79.92092418	    -25.82365531	     33.05536540	     79.09207390	     48.11707586	      0.00000000	      0.00000000
